0
SECTION
2
HEADER
9
$INSUNITS
70
1
9
$ACADVER
1
AC1014
9
$HANDSEED
5
FFFF
0
ENDSEC
0
SECTION
2
TABLES
0
TABLE
2
VPORT
5
8
100
AcDbSymbolTable
0
ENDTAB
0
TABLE
2
LTYPE
5
5
100
AcDbSymbolTable
0
LTYPE
5
14
100
AcDbSymbolTableRecord
100
AcDbLinetypeTableRecord
2
BYBLOCK
70
0
0
LTYPE
5
15
100
AcDbSymbolTableRecord
100
AcDbLinetypeTableRecord
2
BYLAYER
70
0
0
ENDTAB
0
TABLE
2
LAYER
5
2
100
AcDbSymbolTable
70
2
0
LAYER
5
50
100
AcDbSymbolTableRecord
100
AcDbLayerTableRecord
2
0
70
0
6
CONTINUOUS
0
ENDTAB
0
TABLE
2
STYLE
5
3
100
AcDbSymbolTable
70
1
0
STYLE
5
11
100
AcDbSymbolTableRecord
100
AcDbTextStyleTableRecord
2
STANDARD
70
0
0
ENDTAB
0
TABLE
2
VIEW
5
6
100
AcDbSymbolTable
70
0
0
ENDTAB
0
TABLE
2
UCS
5
7
100
AcDbSymbolTable
70
0
0
ENDTAB
0
TABLE
2
APPID
5
9
100
AcDbSymbolTable
70
2
0
APPID
5
12
100
AcDbSymbolTableRecord
100
AcDbRegAppTableRecord
2
ACAD
70
0
0
ENDTAB
0
TABLE
2
DIMSTYLE
5
A
100
AcDbSymbolTable
70
1
0
ENDTAB
0
TABLE
2
BLOCK_RECORD
5
1
100
AcDbSymbolTable
70
1
0
BLOCK_RECORD
5
1F
100
AcDbSymbolTableRecord
100
AcDbBlockTableRecord
2
*MODEL_SPACE
0
BLOCK_RECORD
5
1B
100
AcDbSymbolTableRecord
100
AcDbBlockTableRecord
2
*PAPER_SPACE
0
ENDTAB
0
ENDSEC
0
SECTION
2
BLOCKS
0
BLOCK
5
20
100
AcDbEntity
100
AcDbBlockBegin
2
*MODEL_SPACE
0
ENDBLK
5
21
100
AcDbEntity
100
AcDbBlockEnd
0
BLOCK
5
1C
100
AcDbEntity
100
AcDbBlockBegin
2
*PAPER_SPACE
0
ENDBLK
5
1D
100
AcDbEntity
100
AcDbBlockEnd
0
ENDSEC
0
SECTION
2
ENTITIES
0
CIRCLE
5
100
100
AcDbEntity
8
0
100
AcDbCircle
10
2.9387569549536452
20
-0.4525133113226481
30
8.7419135797256413e-17
40
0.19964466094067174
210
0
220
1.1102230246251565e-16
230
1
0
LWPOLYLINE
5
101
100
AcDbEntity
8
0
100
AcDbPolyline
90
4
70
1
43
0.0
10
3.5687569549536429
20
-0.1025133113226487
10
3.3137569549536439
20
-0.1025133113226485
10
3.3137569549536439
20
0.15248668867735743
10
3.5687569549536429
20
0.15248668867735723
0
LWPOLYLINE
5
102
100
AcDbEntity
8
0
100
AcDbPolyline
90
4
70
1
43
0.0
10
5.501463810067353
20
2.4356628563175078
10
5.5014638100673521
20
0.86066285631746775
10
1.6164638100673547
20
0.86066285631747108
10
1.6164638100673554
20
2.4356628563175109
0
LWPOLYLINE
5
103
100
AcDbEntity
8
0
100
AcDbPolyline
90
4
70
1
43
0.0
10
2.8137569549536456
20
0.15248668867735737
10
3.068756954953646
20
0.15248668867735712
10
3.068756954953646
20
-0.10251331132264863
10
2.8137569549536456
20
-0.10251331132264842
0
LWPOLYLINE
5
104
100
AcDbEntity
8
0
100
AcDbPolyline
90
8
70
1
43
0.0
10
3.7387569549536424
20
-0.2525133113226522
10
3.6887569549536434
20
-0.2525133113226522
10
3.6887569549536434
20
0.43748668867736618
10
3.7387569549536432
20
0.43748668867736606
10
4.2587569549536441
20
0.43748668867736556
10
4.3087569549536449
20
0.43748668867736573
10
4.3087569549536449
20
-0.25251331132265276
10
4.2587569549536433
20
-0.25251331132265259
0
CIRCLE
5
105
100
AcDbEntity
8
0
100
AcDbCircle
10
4.5537569549536423
20
0.072486688677356012
30
0
40
0.12500000000000361
210
0
220
-0
230
1
0
LWPOLYLINE
5
106
100
AcDbEntity
8
0
100
AcDbPolyline
90
4
70
1
43
0.0
10
2.5637569549536456
20
0.15248668867735715
10
2.5637569549536456
20
-0.10251331132264847
10
2.3087569549536457
20
-0.10251331132264827
10
2.3087569549536453
20
0.15248668867735737
0
CIRCLE
5
107
100
AcDbEntity
8
0
100
AcDbCircle
10
5.3914638100673526
20
0.56566285631745872
30
-2.1854783949314103e-17
40
0.065000000000001279
210
4.8107157322704066e-32
220
5.5511151231257815e-17
230
1
0
CIRCLE
5
108
100
AcDbEntity
8
0
100
AcDbCircle
10
5.0887569549536442
20
-0.27251331132265383
30
2.1854783949314103e-17
40
0.045000000000001233
210
-5.0500455829922366e-32
220
5.5511151231257815e-17
230
1
0
CIRCLE
5
109
100
AcDbEntity
8
0
100
AcDbCircle
10
2.0837569549536457
20
0.33748668867736309
30
-2.1854783949314103e-17
40
0.045000000000001233
210
-1.1966448072403676e-33
220
5.5511151231257815e-17
230
1
0
CIRCLE
5
110
100
AcDbEntity
8
0
100
AcDbCircle
10
1.7264638100673557
20
2.7306628563175197
30
-2.6225740739176924e-16
40
0.06500000000000164
210
4.5713872154592042e-32
220
1.6653345369377346e-16
230
1
0
CIRCLE
5
111
100
AcDbEntity
8
0
100
AcDbCircle
10
1.7264638100673551
20
0.56566285631745894
30
-6.556435184794231e-17
40
0.06500000000000164
210
4.5713872154592042e-32
220
1.6653345369377346e-16
230
1
0
CIRCLE
5
112
100
AcDbEntity
8
0
100
AcDbCircle
10
2.0837569549536457
20
-0.27251331132265411
30
2.1854783949314103e-17
40
0.045000000000001233
210
-1.1966448072403676e-33
220
5.5511151231257815e-17
230
1
0
CIRCLE
5
113
100
AcDbEntity
8
0
100
AcDbCircle
10
5.0887569549536442
20
0.33748668867736331
30
-4.3709567898628207e-17
40
0.045000000000001233
210
-1.1966492536091448e-33
220
5.5511151231257815e-17
230
1
0
CIRCLE
5
114
100
AcDbEntity
8
0
100
AcDbCircle
10
5.3914638100673535
20
2.7306628563175193
30
-2.6225740739176924e-16
40
0.065000000000001987
210
4.8107157322704099e-32
220
5.5511151231257815e-17
230
1
0
LWPOLYLINE
5
115
100
AcDbEntity
8
0
100
AcDbPolyline
90
6
70
1
43
0.0
10
3.5587569549536435
20
-0.4525133113226481
10
3.3237569549536445
20
-0.68751331132264748
10
3.3237569549536445
20
-0.54609195508533737
10
3.4173355987163339
20
-0.45251331132264788
10
3.3237569549536445
20
-0.35893466755995879
10
3.3237569549536445
20
-0.21751331132264881
0
LWPOLYLINE
5
116
100
AcDbEntity
8
0
100
AcDbPolyline
90
6
70
1
43
0.0
10
2.3187569549536469
20
-0.45251331132264816
10
2.5537569549536459
20
-0.21751331132264873
10
2.5537569549536463
20
-0.35893466755995862
10
2.460178311190957
20
-0.45251331132264833
10
2.5537569549536463
20
-0.54609195508533781
10
2.5537569549536463
20
-0.68751331132264715
0
CIRCLE
5
117
100
AcDbEntity
8
0
100
AcDbCircle
10
0.39780454464769177
20
3.6926070564941749
30
-2.6225740739176924e-16
40
0.077000000000000055
210
-1.3930608256092624e-31
220
5.5511151231257815e-17
230
1
0
CIRCLE
5
118
100
AcDbEntity
8
0
100
AcDbCircle
10
0.39780454464768705
20
-0.92161333995580652
30
8.7419135797256413e-17
40
0.077000000000000055
210
-1.3930608256092624e-31
220
5.5511151231257815e-17
230
1
0
CIRCLE
5
119
100
AcDbEntity
8
0
100
AcDbCircle
10
6.50625695495365
20
3.6926070564941691
30
-4.3709567898628207e-16
40
0.076999999999999888
210
-2.3791369571355276e-31
220
5.5511151231257815e-17
230
1
0
CIRCLE
5
120
100
AcDbEntity
8
0
100
AcDbCircle
10
6.5062569549536446
20
-0.92161333995581241
30
8.7419135797256413e-17
40
0.076999999999999888
210
-2.3791369571355276e-31
220
5.5511151231257815e-17
230
1
0
LWPOLYLINE
5
121
100
AcDbEntity
8
0
100
AcDbPolyline
90
4
70
1
43
0.0
10
0.11530454464768719
20
-1.4000838557009885
10
6.7887569549536444
20
-1.4000838557009956
10
6.7887569549536497
20
3.987677572239352
10
0.1153045446476928
20
3.9876775722393583
0
ENDSEC
0
SECTION
2
OBJECTS
0
DICTIONARY
5
C
100
AcDbDictionary
3
ACAD_GROUP
350
D
3
ACAD_MLINESTYLE
350
17
0
DICTIONARY
5
D
100
AcDbDictionary
0
DICTIONARY
5
1A
330
C
100
AcDbDictionary
0
DICTIONARY
5
17
100
AcDbDictionary
0
ENDSEC
0
EOF
